<?xml version="1.0" encoding="utf-8"?>
<!-- Generator: Adobe Illustrator 24.1.2, SVG Export Plug-In . SVG Version: 6.00 Build 0)  -->
<svg version="1.1" xmlns="http://www.w3.org/2000/svg" xmlns:xlink="http://www.w3.org/1999/xlink" x="0px" y="0px"
	 viewBox="0 0 1920 1080" style="enable-background:new 0 0 1920 1080;" xml:space="preserve">
<g id="Layer_1">
</g>
<g id="Layer_2">
	<g>
		<g>
			<path d="M95.67,17.15c-2.48,114.14,8.92,228.48,34.09,339.85c12.34,54.61,27.76,108.7,46.97,161.3
				c17.55,48.07,38.83,95.07,66.82,138.02c51.14,78.5,125.58,137.41,213.29,170.19c85.86,32.09,180.59,38.49,269.85,17.54
				c89.42-20.99,172.06-67.58,238.71-130.48c33.81-31.91,63.49-68.06,88.26-107.39c29.45-46.76,52.83-97.2,84.73-142.44
				c58.99-83.67,151.4-154.04,254.5-169.5c51.48-7.72,103.17,1.15,148.38,27.16c42.29,24.33,77.02,60.29,105.58,99.45
				c59.17,81.12,96.22,176.85,116.88,274.62c21.16,100.12,25.85,203.19,21.91,305.23c-0.96,24.83-2.46,49.63-4.37,74.4
				c-0.15,1.93,2.85,1.92,3,0c7.8-101.2,8.6-203.39-4.67-304.18c-12.83-97.43-39.21-193.77-85.85-280.66
				c-42.89-79.9-105.28-161.84-194.86-191.15c-96.07-31.42-199.54,10.08-275.09,70.02c-40.11,31.82-74.14,70.35-101.63,113.49
				c-29.28,45.95-52.39,95.6-83.25,140.58c-53.63,78.17-127.98,142.29-213.65,183.01c-86,40.88-182.5,56.3-276.73,41.32
				c-92.77-14.74-181.7-57.35-247.92-124.5c-74.83-75.88-115.24-178.21-144.98-278.7c-32.92-111.24-51.87-226.58-56.3-342.49
				c-1.08-28.22-1.27-56.46-0.66-84.69C98.71,15.22,95.71,15.22,95.67,17.15L95.67,17.15z"/>
		</g>
	</g>
</g>
</svg>
