<?xml version="1.0" encoding="utf-8"?>
<!-- Generator: Adobe Illustrator 24.1.2, SVG Export Plug-In . SVG Version: 6.00 Build 0)  -->
<svg version="1.1" xmlns="http://www.w3.org/2000/svg" xmlns:xlink="http://www.w3.org/1999/xlink" x="0px" y="0px"
	 viewBox="0 0 1920 1080" style="enable-background:new 0 0 1920 1080;" xml:space="preserve">
<g id="Layer_1">
</g>
<g id="Layer_2">
	<g>
		<g>
			<path d="M76.37,19.5c-4.71,158.59-6.17,326.28,72.27,469.43c32.72,59.71,78.67,112.93,137.32,148.33
				c65.29,39.41,143.69,57.41,219.55,57.75c73.03,0.33,147.29-17.51,207.48-60.09C775.96,590.37,820.09,525,869.87,467.29
				c54.47-63.15,113.64-122.27,176.89-176.63c29.96-25.75,61.24-50.58,96.42-68.89c38.15-19.86,79.51-29.1,122.45-29.17
				c75.02-0.11,153.05,19.76,218.25,57c65.52,37.42,114.8,94.32,143.06,164.24c28.12,69.58,37.23,146.31,37.2,220.91
				c-0.02,40.53-3.81,81.73-17.65,120.09c-12.98,35.96-35.3,67.41-63.07,93.5c-106.92,100.41-276.06,120.6-407.63,59.9
				c-31.86-14.7-62.35-34.14-85.63-60.71c-27.68-31.59-38.22-70.77-42.02-111.83c-7.03-75.85-5.18-159.13,47.11-219.8
				c43.2-50.13,108.48-77.02,172.82-86.35c69.13-10.02,154.46-3.04,194.27,62.87c19.44,32.18,27.88,72.32,29.4,109.56
				c1.5,36.64-6.16,75.29-33.59,101.57c-46.77,44.81-158.12,67.26-195.52-0.71c-13.96-25.36-14.64-59.85,8.28-80.23
				c1.45-1.29-0.68-3.4-2.12-2.12c-21.07,18.73-23.25,49.38-13.18,74.46c11.64,29,38.01,46.34,68.25,51.45
				c34.98,5.91,72.43-2.72,103.85-18.36c31.75-15.8,54.27-41.85,62.73-76.53c8.54-35.01,4.35-72.92-4.33-107.49
				c-8.6-34.22-24.51-67.34-53.24-89.04c-28.22-21.32-64.02-29.69-98.78-31.61c-33.76-1.86-68.05,1.84-100.85,9.93
				c-62.83,15.49-124.16,49.65-158.78,105.96c-20.3,33.03-29.02,71.48-31.43,109.84c-2.5,39.69-0.9,81.58,6.82,120.66
				c7.4,37.47,25.32,69.89,53.62,95.59c25.85,23.47,57.08,40.65,89.4,53.46c67.19,26.63,141.97,33.22,212.97,20.18
				c71.28-13.09,140.25-46.69,190.66-99.36c26.41-27.6,46.24-60.41,57.19-97.08c11.48-38.46,13.99-79.03,13.36-118.96
				c-1.19-75.61-11.53-153.09-42.38-222.73c-30.41-68.64-82-123.28-148.09-158.71c-66.87-35.85-146.81-55.12-222.72-52.31
				c-40.8,1.51-79.82,11.93-115.79,31.26c-35.21,18.92-66.54,44.21-96.68,70.26c-65.71,56.79-127,118.69-183.15,184.95
				c-52.16,61.55-99.76,130.93-171.35,171.7C617.25,687.66,534,698,455.24,689.01c-81.83-9.34-161.47-39.26-222.55-95.63
				C110.81,480.9,80.13,308.41,77.66,150.03c-0.68-43.52,0.41-87.03,1.71-130.53C79.43,17.57,76.43,17.57,76.37,19.5L76.37,19.5z"/>
		</g>
	</g>
</g>
</svg>
