<?xml version="1.0" encoding="utf-8"?>
<!-- Generator: Adobe Illustrator 24.1.2, SVG Export Plug-In . SVG Version: 6.00 Build 0)  -->
<svg version="1.1" xmlns="http://www.w3.org/2000/svg" xmlns:xlink="http://www.w3.org/1999/xlink" x="0px" y="0px"
	 viewBox="0 0 1920 1080" style="enable-background:new 0 0 1920 1080;" xml:space="preserve">
<g id="Layer_1">
</g>
<g id="Layer_2">
	<g>
		<g>
			<path d="M518.07,54.52c-105.18,61.51-204.13,138.75-275.34,238.69c-67.36,94.54-104.66,207.69-94.7,324.29
				c4.58,53.66,19.05,106.8,44.9,154.2c28.15,51.63,69.42,93.3,119.17,124.38c58.39,36.47,124.81,60.8,190.73,79.69
				c68.43,19.6,138.66,32.34,209.27,40.9c149.35,18.11,301.22,21.07,451.46,16.24c138.13-4.44,281.02-14.4,408.78-71.76
				c104.98-47.13,198.85-132,237.04-242.79c18.49-53.63,21.67-111.37,9.16-166.71c-12.72-56.3-40.36-108.48-76.4-153.28
				c-80.73-100.38-199.61-156.07-322.83-184.95c-66.41-15.57-134.28-24.09-202.16-30.11c-73.17-6.5-146.67-10.43-220.15-9.15
				c-134.05,2.32-273.26,20.65-395.28,79.22c-100.3,48.15-193.36,128.22-221.95,239.78c-15.29,59.66-8.96,124.47,29.69,174.07
				c35.12,45.08,88.01,72.61,140.11,93.33c128.82,51.24,268.19,78.85,406.46,85.63c139.7,6.86,282.01-7.7,416.56-46.48
				c60.3-17.38,121.96-42.58,165.93-89.01c39.11-41.29,64.34-100.46,52.41-157.72c-12.43-59.69-62.43-103.97-114.75-130.33
				c-59.29-29.88-125.96-41.19-191.08-50.45c-74.8-10.64-150.19-17.04-225.72-19.11c-69.86-1.92-140.61-1.58-209.62,10.69
				c-33.52,5.96-66.58,14.91-98.02,28.06c-28.64,11.98-55.93,27.13-77.54,49.8c-18.33,19.24-33.39,44.68-31.43,72.15
				c1.83,25.71,18.09,46.2,38.9,60.08c25.25,16.83,55.49,25.95,84.24,34.74c34.68,10.6,70.03,18.98,105.77,25.12
				c69.65,11.97,141.61,16.21,212.09,9.97c49.56-4.39,104.73-17.51,134.04-61.49c1.07-1.61-1.52-3.11-2.59-1.51
				c-32.51,48.77-96.74,58.41-150.81,61.33c-70.76,3.83-141.98-1.2-211.52-14.79c-34.08-6.66-67.77-15.39-100.79-26.13
				c-27.68-9.01-57.15-18.63-79.64-37.89c-23.35-20-32.87-49.86-22.27-79.21c10.62-29.41,35.72-52.77,61.71-68.93
				c56.48-35.11,126.13-49.27,191.46-55.5c69.27-6.61,139.53-5.08,208.93-1.32c72.86,3.95,145.73,11.6,217.66,23.93
				c61.93,10.62,125.11,26.52,177.66,62.42c51.38,35.1,89.73,90.27,82.3,154.79c-7.25,62.93-49.89,115.46-102.07,148.41
				c-54.37,34.33-118.19,51.35-180.33,65.33c-67.15,15.11-135.5,24.8-204.19,29.09c-136.05,8.49-273.4-4.13-405.56-37.57
				c-62.66-15.86-126.16-35.03-184.51-63.2c-50.09-24.18-98.87-58.66-122.57-110.74c-27.23-59.86-16.68-130.47,10.68-188.29
				c23.44-49.54,60.2-91.55,102.96-125.43C600.24,241,721.85,205.37,841.34,188.74c139.41-19.41,282.03-13.16,421.54,2.06
				c129.18,14.1,262.84,41.31,372.69,114.48c95.61,63.69,173.73,166.22,186.01,282.96c12.18,115.76-47.68,223.74-133.91,297.15
				c-99.24,84.5-228.92,119.1-355.99,133.53c-69.27,7.87-139.14,10.63-208.8,12.05c-74.33,1.51-148.7,0.62-222.97-2.66
				c-139.27-6.15-279.74-19.71-413.61-60.56c-63.68-19.43-127.8-44.03-183.42-81.19c-48.34-32.3-87.26-75.53-113.22-127.63
				c-48.78-97.9-51.43-216.16-18.51-319.38C207.22,326.43,286,231.06,376.3,156.24c44.79-37.11,93.11-69.78,143.29-99.13
				C521.25,56.13,519.74,53.54,518.07,54.52L518.07,54.52z"/>
		</g>
	</g>
</g>
</svg>
