<?xml version="1.0" encoding="utf-8"?>
<!-- Generator: Adobe Illustrator 24.1.2, SVG Export Plug-In . SVG Version: 6.00 Build 0)  -->
<svg version="1.1" id="Layer_1" xmlns="http://www.w3.org/2000/svg" xmlns:xlink="http://www.w3.org/1999/xlink" x="0px" y="0px"
	 viewBox="0 0 1920 1080" style="enable-background:new 0 0 1920 1080;" xml:space="preserve">
<g>
	<g>
		<path d="M12.28,1064.33c17.49-15.55,41.36-16.51,63.62-16.11c23.35,0.42,46.57,0.74,69.9-0.79c47.84-3.14,95.68-11.55,141.45-25.9
			c38.34-12.02,75.26-29.67,103.97-58.36c22.09-22.08,38.58-49.03,51.43-77.34c27.01-59.52,39.41-124.24,61-185.69
			c22.36-63.63,58.01-126.88,123.86-153.07c38.04-15.13,81.09-16.67,120.39-5.53c19.72,5.59,38.44,14.42,55.15,26.3
			c19.59,13.92,36.21,31.48,55.07,46.3c65.33,51.33,154.95,48.28,228.67,17.68c42.64-17.7,84.56-43.56,132.4-41.52
			c22.75,0.97,44.2,9.04,60.49,25.2c15.5,15.38,25.28,35.63,33.27,55.68c30.5,76.52,51.49,157.69,102.28,224.29
			c48.21,63.22,119.04,99.4,195.09,117.93c38.93,9.48,78.78,14.82,118.65,18.33c41.55,3.66,84.49,2.51,125.3,11.84
			c20.23,4.63,39.34,12.42,55.86,25.13c1.53,1.18,3.02-1.43,1.51-2.59c-32.61-25.09-74.3-30.17-114.14-32.74
			c-41.73-2.69-83.41-5.05-124.83-11.1c-81.23-11.86-164.25-36.75-224.91-94.75c-63.28-60.5-91.78-146.15-120.58-226.45
			c-12.48-34.78-25.02-74.47-56.4-97.06c-33.84-24.37-78.86-18.65-115.73-5.12c-43.15,15.84-82.36,39.27-128.1,47.81
			c-43.22,8.07-89.51,5.96-130-12.25c-41.25-18.56-68.16-56.33-106.92-78.51c-33.1-18.95-72.15-27.11-110.09-24.03
			c-70.14,5.69-123.83,50.37-155.4,111.16c-30.33,58.41-43.18,123.93-63.49,186.06c-21.94,67.1-54.17,131.39-118.61,166.43
			c-42.49,23.1-91.68,34.78-139.12,42.39c-26.25,4.21-52.78,6.73-79.36,7.53c-22.37,0.68-44.86-1.36-67.19,0.02
			c-17.1,1.05-33.56,5.1-46.61,16.71C8.71,1063.49,10.84,1065.61,12.28,1064.33L12.28,1064.33z"/>
	</g>
</g>
</svg>
