<?xml version="1.0" encoding="utf-8"?>
<!-- Generator: Adobe Illustrator 23.1.0, SVG Export Plug-In . SVG Version: 6.00 Build 0)  -->
<svg version="1.1" id="Layer_1" xmlns="http://www.w3.org/2000/svg" xmlns:xlink="http://www.w3.org/1999/xlink" x="0px" y="0px"
	 viewBox="0 0 200 200" style="enable-background:new 0 0 200 200;" xml:space="preserve">
<style type="text/css">
	.st0{fill:#FBB03B;}
</style>
<g>
	<g>
		<path class="st0" d="M149.14,20.1c-1.18-0.82-1.95-0.99-2.29-0.55c-2.87,3.58-4.3,5.38-7.17,8.96c-0.35,0.44-0.07,1.09,0.81,1.96
			c-0.02,0.03-0.04,0.04-0.06,0.07c-1.99-1.64-3.03-2.43-5.17-3.95c0.02-0.03,0.03-0.05,0.06-0.08c1.1,0.64,1.8,0.74,2.14,0.29
			c2.78-3.7,4.17-5.55,6.94-9.25c-5.63,2.25-8.34,3.54-13.5,6.4c-0.05-5.31-0.27-8.03-1.14-13.53c-1.4,2.65-2.1,3.98-3.49,6.63
			c-0.57,1.09-0.81,1.93-0.73,2.51c0.08,0.59,0.38,1.05,0.9,1.39c-0.02,0.03-0.03,0.05-0.05,0.08c-1.55-0.86-2.35-1.27-3.97-2.07
			c0.02-0.03,0.03-0.05,0.04-0.09c0.31,0.12,0.57,0.2,0.77,0.23c0.2,0.03,0.44,0,0.71-0.07c0.27-0.07,0.54-0.27,0.81-0.58
			c0.27-0.32,0.55-0.76,0.85-1.33c1.6-3.07,2.4-4.61,3.99-7.69c-0.18-1.02-0.61-1.97-1.28-2.84c1.67,0.82,2.49,1.24,4.09,2.11
			c0.83,5.4,1.03,8.06,1.08,13.27c4.44-2.32,6.75-3.38,11.52-5.27c1.73,1.28,2.57,1.93,4.2,3.28
			C149.18,20.06,149.16,20.07,149.14,20.1z"/>
		<path class="st0" d="M150.78,38.18c-0.39,0.35-0.63,0.65-0.72,0.91c-0.09,0.25-0.08,0.58,0.01,0.97
			c-0.02,0.02-0.03,0.03-0.05,0.04c-0.86-1.33-1.31-1.99-2.25-3.3c0.01,0.01,0.02,0.01,0.03,0c-0.82-0.34-1.61-0.88-2.4-1.64
			c-1.24-1.19-2.01-2.43-2.3-3.75c-0.28-1.32-0.01-2.51,0.89-3.57c0.98-1.14,2.32-1.66,4.05-1.46c1.73,0.19,3.61,1.21,5.48,3.08
			c1.19,1.19,2.07,2.47,2.64,3.82C154.02,35.25,152.94,36.22,150.78,38.18z M146.77,28.82c-0.94,1.05-1.38,2.24-1.37,3.57
			c0.02,1.33,0.49,2.44,1.44,3.38c0.57,0.56,1.19,0.86,1.88,0.9c0.19-0.14,0.38-0.3,0.56-0.47c1.83-1.75,2.74-2.62,4.57-4.37
			c-0.1-1.12-0.59-2.13-1.48-2.99c-0.95-0.92-1.95-1.38-2.95-1.36C148.43,27.51,147.54,27.96,146.77,28.82z"/>
		<path class="st0" d="M151.83,41.82c0.45-0.3,0.67-0.46,1.12-0.76c2.31-1.93,3.47-2.9,5.78-4.83c-0.1-0.41-0.35-0.89-0.76-1.43
			c0.02-0.02,0.03-0.03,0.06-0.05c1.24,1.25,1.85,1.89,3.02,3.18c-0.49,0.32-0.74,0.48-1.23,0.79c-1.99,1.57-2.98,2.36-4.97,3.93
			c-0.41,0.32-0.67,0.61-0.79,0.86c-0.11,0.25-0.14,0.58-0.07,0.98C153.16,43.42,152.72,42.88,151.83,41.82z M161.52,35.51
			c-0.3-0.37-0.46-0.75-0.49-1.14c-0.03-0.4,0.09-0.71,0.35-0.92c0.26-0.22,0.58-0.28,0.97-0.19c0.39,0.1,0.74,0.33,1.05,0.72
			c0.3,0.36,0.45,0.74,0.46,1.14s-0.11,0.7-0.38,0.9c-0.27,0.21-0.59,0.26-0.97,0.17C162.14,36.09,161.81,35.86,161.52,35.51z"/>
		<path class="st0" d="M160.01,53.29c0.49-0.23,0.74-0.35,1.23-0.58c1.6-0.96,2.4-1.44,4-2.4c1.57-0.94,1.92-2.16,0.99-3.61
			c-0.14-0.22-0.3-0.43-0.48-0.63c-0.18-0.2-0.35-0.37-0.5-0.5c-0.15-0.13-0.35-0.29-0.6-0.45c-0.25-0.17-0.44-0.28-0.57-0.35
			c-0.13-0.07-0.34-0.18-0.65-0.34s-0.5-0.26-0.58-0.31c-1.82,1.27-2.74,1.9-4.56,3.17c-0.43,0.3-0.71,0.57-0.84,0.81
			c-0.13,0.24-0.18,0.57-0.14,0.97c-0.77-1.13-1.16-1.69-1.98-2.79c0.47-0.28,0.7-0.41,1.17-0.69c2.43-1.78,3.64-2.67,6.07-4.46
			c-0.07-0.41-0.29-0.9-0.66-1.47c0.02-0.02,0.04-0.03,0.06-0.05c1.15,1.31,1.7,1.98,2.79,3.34c-0.51,0.29-0.76,0.43-1.27,0.72
			c-0.12,0.08-0.17,0.12-0.29,0.2c1.44,0.74,2.47,1.41,3.09,1.94c0.61,0.53,1.1,1.11,1.48,1.72c0.24,0.39,0.41,0.78,0.53,1.17
			c0.11,0.39,0.16,0.81,0.14,1.26c-0.02,0.45-0.19,0.9-0.52,1.33c-0.32,0.44-0.79,0.83-1.41,1.17c-1.48,0.83-2.21,1.25-3.69,2.08
			c-0.46,0.26-0.76,0.5-0.92,0.73c-0.16,0.23-0.23,0.54-0.23,0.96C161.04,55.04,160.7,54.45,160.01,53.29z"/>
		<path class="st0" d="M173,79.57c-0.8,0.61-1.33,1.08-1.58,1.44c-0.25,0.36-0.35,0.78-0.3,1.29c-0.03,0.01-0.04,0.01-0.07,0.01
			c-0.5-2.59-0.8-3.87-1.48-6.42c0.03-0.01,0.04-0.01,0.07-0.02c0.19,0.55,0.38,0.95,0.58,1.21c0.2,0.26,0.48,0.42,0.82,0.46
			c0.35,0.05,0.76-0.15,1.23-0.58c0.33-0.28,0.5-0.42,0.83-0.7c-0.9-3.55-1.44-5.3-2.69-8.76c-0.44-0.06-0.66-0.09-1.09-0.15
			c-0.45-0.05-0.81-0.04-1.08,0.04c-0.27,0.08-0.45,0.23-0.54,0.44c-0.09,0.21-0.13,0.44-0.14,0.68c0,0.24,0.02,0.54,0.08,0.91
			c-0.03,0.01-0.04,0.02-0.07,0.03c-0.56-1.58-0.85-2.37-1.48-3.92c0.03-0.01,0.04-0.02,0.07-0.03c0.31,0.43,0.67,0.75,1.07,0.94
			c0.4,0.2,1.04,0.33,1.93,0.43c4.46,0.52,6.7,0.89,11.18,1.86c0.17-0.08,0.26-0.12,0.43-0.2c0.14,0.14,0.2,0.21,0.34,0.36
			c0.77,0.85,1.15,1.28,1.9,2.16c-0.15,0.04-0.53,0.36-1.14,0.95C178.43,75.22,176.65,76.74,173,79.57z M170.79,67.52
			c1.2,3.34,1.72,5.04,2.6,8.47c2.99-2.54,4.44-3.88,7.27-6.71C176.71,68.41,174.73,68.05,170.79,67.52z"/>
		<path class="st0" d="M181.62,87.77c0.22,1.88-0.07,3.44-0.83,4.61c-0.76,1.17-1.84,1.78-3.2,1.86c-1.48,0.09-2.74-0.48-3.81-1.65
			c-1.07-1.17-1.71-2.87-2.02-5.17c-0.22-1.65-0.27-3.31-0.15-4.99c0.01,0,0.01,0,0.02,0c0.15,0.39,0.36,0.64,0.63,0.75
			c0.27,0.12,0.7,0.12,1.31,0.01c4.16-0.76,6.25-1.14,10.41-1.9c0.19-0.04,0.33-0.09,0.41-0.17c0.08-0.08,0.1-0.22,0.07-0.43
			c-0.03-0.21-0.09-0.41-0.16-0.62c-0.08-0.21-0.21-0.53-0.42-0.99c0.05-0.01,0.07-0.01,0.12-0.02c1.07,1.81,1.59,2.73,2.57,4.62
			c-0.32-0.01-0.48-0.01-0.8-0.02c-2.11,0.33-3.17,0.5-5.28,0.83C181.08,85.34,181.46,86.44,181.62,87.77z M172.3,88.62
			c0.28,2.31,1.57,3.37,3.98,3.17c1.5-0.13,2.71-0.64,3.62-1.58c0.91-0.94,1.28-2.12,1.11-3.5c-0.11-0.84-0.41-1.56-0.89-2.16
			c-2.93,0.46-4.39,0.69-7.32,1.15C172.32,86.54,172.17,87.51,172.3,88.62z"/>
		<path class="st0" d="M180.94,97.8c0.93,1.17,1.4,2.75,1.35,4.68c-0.05,1.93-0.59,3.48-1.57,4.61c-0.98,1.12-2.21,1.59-3.66,1.46
			c-1.43-0.13-2.54-0.81-3.36-1.98c-0.82-1.17-1.19-2.6-1.15-4.35c0.05-1.74,0.48-3.15,1.36-4.28c0.88-1.12,2.02-1.74,3.47-1.79
			C178.82,96.09,180.01,96.63,180.94,97.8z M172.85,103.11c-0.03,0.86,0.22,1.54,0.76,2.05c0.54,0.51,1.31,0.81,2.3,0.88
			c0.92,0.06,1.83-0.06,2.74-0.37c0.9-0.31,1.68-0.84,2.33-1.59c0.65-0.75,0.98-1.61,1-2.57c0.02-0.95-0.27-1.69-0.84-2.2
			c-0.57-0.52-1.36-0.76-2.36-0.75c-0.91,0.01-1.81,0.21-2.69,0.57c-0.89,0.36-1.63,0.9-2.26,1.61S172.88,102.23,172.85,103.11z"/>
		<path class="st0" d="M170.91,120.95c-0.25,0.27-0.46,0.65-0.64,1.15c-0.03-0.01-0.05-0.01-0.08-0.02
			c0.24-1.42,0.34-2.13,0.52-3.55c0.72,0.15,1.08,0.23,1.79,0.38c-0.23-0.6-0.42-1.12-0.57-1.55c-0.14-0.43-0.26-1.01-0.37-1.75
			c-0.1-0.73-0.11-1.42-0.01-2.06c0.06-0.37,0.15-0.72,0.3-1.04c0.14-0.32,0.35-0.63,0.63-0.93c0.28-0.3,0.68-0.52,1.2-0.66
			c0.52-0.14,1.12-0.17,1.82-0.09c1.67,0.2,2.51,0.3,4.18,0.5c0.53,0.06,0.92,0.02,1.18-0.12c0.26-0.14,0.51-0.48,0.76-1
			c0.02,0,0.02,0,0.04,0c-0.17,1.61-0.26,2.41-0.49,4.01c-0.52-0.14-0.79-0.2-1.31-0.34c-1.85-0.27-2.78-0.4-4.63-0.67
			c-1-0.14-1.73-0.03-2.19,0.34c-0.47,0.37-0.75,0.86-0.85,1.48c-0.08,0.48-0.08,0.98,0,1.49c0.08,0.51,0.16,0.91,0.26,1.19
			c0.1,0.28,0.26,0.71,0.47,1.28c2.14,0.46,3.21,0.68,5.35,1.14c0.52,0.11,0.92,0.11,1.19-0.01c0.27-0.12,0.55-0.43,0.85-0.94
			c0.01,0,0.02,0,0.04,0.01c-0.31,1.59-0.48,2.39-0.85,3.97c-0.51-0.18-0.77-0.28-1.28-0.46C175.29,122,173.83,121.65,170.91,120.95
			z"/>
		<path class="st0" d="M168.63,125.84c0.4-0.67,0.6-1.01,0.99-1.7c0.45,0.15,0.67,0.23,1.11,0.38c3.57,1,5.35,1.5,8.92,2.5
			c0.37,0.1,0.62,0.01,0.74-0.3c0.12-0.3,0.18-0.89,0.18-1.74c0.04,0.01,0.07,0.02,0.11,0.03c0.2,2.12,0.28,3.2,0.36,5.36
			c-0.3-0.18-0.45-0.27-0.75-0.44c-0.98-0.3-1.46-0.45-2.44-0.75c-0.35,1.16-0.54,1.74-0.93,2.9c-0.16-0.11-0.24-0.17-0.4-0.28
			c0.37-1.1,0.54-1.65,0.88-2.76c-3.31-1.02-4.97-1.53-8.28-2.56c-0.3,1.11-0.46,1.66-0.8,2.76c-0.03-0.01-0.04-0.01-0.07-0.02
			c0.11-1.18,0.16-1.76,0.24-2.93C168.55,126.12,168.58,126.02,168.63,125.84z"/>
		<path class="st0" d="M164.06,164.49c-1.24,1.55-1.88,2.32-3.2,3.82c-0.03-0.02-0.04-0.03-0.06-0.06c0.33-0.56,0.5-1.09,0.53-1.58
			c0.03-0.49-0.13-1.16-0.47-1.99c-1.84-4.47-2.86-6.63-5.1-10.78c0.12-1.05,0.17-1.57,0.25-2.6c0.12,0.12,0.18,0.18,0.3,0.29
			c3.22,0.6,4.85,0.84,8.14,1.22c-1.49-2.5-2.27-3.72-3.89-6.1c0.01-1.05,0.01-1.57-0.01-2.6c0.13,0.1,0.19,0.16,0.32,0.26
			c5.51,0.51,8.32,0.61,13.98,0.49c0.66-0.01,1.22-0.16,1.7-0.46c-1.16,2.48-1.79,3.7-3.13,6.11c-0.03-0.02-0.05-0.03-0.08-0.04
			c0.22-0.44,0.36-0.82,0.45-1.14c0.08-0.32,0.1-0.61,0.06-0.87c-0.05-0.26-0.2-0.46-0.46-0.59c-0.26-0.13-0.63-0.2-1.1-0.21
			c-4.49-0.12-6.71-0.28-11.09-0.79c1.61,2.34,2.39,3.55,3.88,6.02c2.04,0.23,3.07,0.32,5.14,0.47c0.66,0.05,1.24-0.05,1.74-0.3
			c-1.41,2.38-2.16,3.54-3.74,5.84c-0.03-0.02-0.04-0.03-0.07-0.05c0.26-0.42,0.45-0.79,0.56-1.1c0.12-0.31,0.16-0.6,0.14-0.86
			c-0.02-0.27-0.15-0.48-0.4-0.63c-0.25-0.15-0.61-0.26-1.08-0.32c-4.47-0.53-6.68-0.9-11-1.81c2.12,3.9,3.1,5.93,4.87,10.1
			c0.19,0.43,0.38,0.75,0.57,0.94c0.19,0.19,0.41,0.27,0.67,0.22c0.25-0.05,0.49-0.14,0.71-0.29c0.22-0.15,0.49-0.37,0.81-0.66
			C164.02,164.46,164.03,164.47,164.06,164.49z"/>
		<path class="st0" d="M156.79,164.67c-0.14,1.54-0.92,3.07-2.34,4.53c-1.43,1.46-2.96,2.3-4.5,2.51c-1.55,0.21-2.81-0.26-3.78-1.34
			c-0.96-1.07-1.28-2.34-1.03-3.81c0.25-1.46,1.02-2.82,2.3-4.14c1.29-1.32,2.61-2.11,4.06-2.39c1.44-0.28,2.72,0.02,3.83,0.96
			C156.42,161.91,156.93,163.13,156.79,164.67z M147.01,163.3c-0.64,0.65-0.95,1.34-0.93,2.1c0.03,0.76,0.38,1.51,1.07,2.24
			c0.64,0.67,1.4,1.19,2.3,1.56s1.86,0.48,2.88,0.34c1.02-0.14,1.89-0.59,2.59-1.31c0.69-0.72,1.01-1.49,0.95-2.27
			c-0.05-0.78-0.47-1.51-1.22-2.18c-0.68-0.61-1.48-1.06-2.4-1.38c-0.92-0.32-1.85-0.41-2.82-0.28
			C148.47,162.26,147.67,162.65,147.01,163.3z"/>
		<path class="st0" d="M141.73,180.14c-0.41,0.3-0.86,0.52-1.33,0.66c0.15-1.51,0.2-2.26,0.28-3.75c0.03-0.02,0.05-0.04,0.08-0.06
			c0.14,0.69,0.37,1.12,0.71,1.28c0.33,0.16,0.7,0.09,1.1-0.21c0.51-0.38,0.77-0.9,0.78-1.54c0.01-0.64-0.16-1.3-0.51-1.97
			c-1-1.24-1.5-1.87-2.51-3.11c-0.33-0.41-0.62-0.67-0.88-0.77c-0.26-0.11-0.6-0.12-1.02-0.05c1.14-0.88,1.69-1.33,2.78-2.25
			c0.31,0.44,0.47,0.66,0.78,1.1c1.95,2.29,2.93,3.44,4.88,5.73c0.42-0.11,0.91-0.38,1.47-0.79c0.02,0.02,0.03,0.03,0.05,0.06
			c-1.28,1.27-1.95,1.9-3.31,3.13c-0.32-0.49-0.48-0.73-0.8-1.22c-0.16-0.2-0.24-0.3-0.4-0.49c-0.11,0.09-0.16,0.13-0.27,0.22
			c0.15,0.68,0.07,1.38-0.27,2.12C143.03,178.94,142.49,179.59,141.73,180.14z"/>
		<path class="st0" d="M132.01,177.43c-0.31-0.48-0.61-0.79-0.92-0.91s-0.73-0.08-1.3,0.13c-0.02-0.03-0.02-0.04-0.04-0.06
			c1.46-0.89,2.18-1.34,3.58-2.28c0.2,0.45,0.29,0.68,0.49,1.13c2.62,3.87,3.93,5.81,6.54,9.68c0.11,0.16,0.22,0.26,0.33,0.3
			c0.11,0.03,0.26-0.01,0.46-0.13c0.19-0.12,0.38-0.27,0.55-0.43c0.18-0.17,0.45-0.44,0.82-0.84c0.03,0.04,0.04,0.06,0.07,0.1
			c-1.39,1.82-2.12,2.73-3.66,4.51c-0.11-0.3-0.17-0.45-0.29-0.75C135.99,183.69,134.66,181.6,132.01,177.43z M122.29,180.66
			c1.57-0.77,2.33-1.17,3.84-1.99c0.06,0.12,0.1,0.18,0.16,0.29c2.46,0.55,3.71,0.79,6.25,1.19c0.32-0.19,0.47-0.29,0.78-0.49
			c-0.98,2.47-1.54,3.72-2.78,6.2c-0.39,0.78-0.07,0.97,0.95,0.54c0,0.05,0,0.08,0.01,0.13c-1.7,0.95-2.57,1.41-4.35,2.3
			c0-0.05,0-0.08,0-0.13c1.47-0.9,2.76-2.43,3.77-4.56c0.39-0.83,0.58-1.25,0.94-2.08c-1.98-0.32-2.96-0.5-4.89-0.92
			c-1.23-0.24-2.13-0.41-2.73-0.48C123.64,180.59,122.99,180.59,122.29,180.66z"/>
	</g>
</g>
</svg>
