<?xml version="1.0" encoding="utf-8"?>
<!-- Generator: Adobe Illustrator 24.1.2, SVG Export Plug-In . SVG Version: 6.00 Build 0)  -->
<svg version="1.1" xmlns="http://www.w3.org/2000/svg" xmlns:xlink="http://www.w3.org/1999/xlink" x="0px" y="0px"
	 viewBox="0 0 1920 1080" style="enable-background:new 0 0 1920 1080;" xml:space="preserve">
<g id="Layer_1">
</g>
<g id="Layer_2">
	<g>
		<g>
			<path d="M966.56,461.44c-45.75-42.01-109.26-59.9-170.27-62.42c-30.87-1.28-61.14,4.33-87.69,20.61
				c-23.02,14.12-42.23,34.87-53.37,59.56c-21.91,48.57-8.52,110.67,33.66,144.08c23.32,18.47,53.41,26.28,82.83,25.62
				c31.21-0.7,61.19-10.92,88.14-26.29c28.4-16.2,53.58-37.68,76.8-60.55c24.91-24.53,46.15-52.01,68.9-78.45
				c21.44-24.91,45.28-47.17,73.97-63.5c27.51-15.66,58.36-25.85,90.05-27.74c57.25-3.43,117.71,22.87,147.89,72.97
				c27.86,46.25,24.2,111.95-14.44,151.24c-20.42,20.77-48.79,31.97-77.51,34.53c-30.12,2.68-60.09-3.83-87.2-16.95
				c-28.32-13.71-53.11-33.81-74.85-56.37c-23.44-24.33-43-51.92-63.88-78.39c-10.32-13.08-21-25.87-32.62-37.82
				c-1.35-1.39-3.47,0.74-2.12,2.12c24.12,24.84,44.06,53.21,65.5,80.29c19.73,24.93,41.24,48.5,66.56,67.89
				c24.01,18.39,51.61,33.1,81.39,39.33c27.72,5.8,57.36,4.66,84.03-5.26c25.41-9.45,47.06-26.99,60.35-50.74
				c12.8-22.88,17.79-49.86,15.35-75.87c-2.52-26.85-13.04-52.06-30.3-72.78c-17.82-21.39-41.77-37.25-67.79-46.84
				c-57.18-21.08-120.31-8.66-170.97,23.2c-27.76,17.46-50.49,40.56-71.48,65.55c-11.27,13.42-22.17,27.16-33.7,40.37
				c-11.56,13.25-23.74,25.96-36.49,38.07c-46.08,43.79-104.14,83.77-170.75,78.56c-30.06-2.35-59.17-14.58-79.35-37.41
				c-18.21-20.61-28.48-47.91-29.49-75.31c-2.12-57.24,39.4-107.69,92.9-124.48c32.34-10.15,67.59-6.95,100.46-1.22
				c30.29,5.28,60.13,14.48,86.89,29.82c13.11,7.52,25.32,16.44,36.45,26.66C965.86,464.86,967.99,462.75,966.56,461.44
				L966.56,461.44z"/>
		</g>
	</g>
</g>
</svg>
