<?xml version="1.0" encoding="utf-8"?>
<!-- Generator: Adobe Illustrator 24.1.2, SVG Export Plug-In . SVG Version: 6.00 Build 0)  -->
<svg version="1.1" xmlns="http://www.w3.org/2000/svg" xmlns:xlink="http://www.w3.org/1999/xlink" x="0px" y="0px"
	 viewBox="0 0 1920 1080" style="enable-background:new 0 0 1920 1080;" xml:space="preserve">
<g id="Layer_1">
</g>
<g id="Layer_2">
	<g>
		<g>
			<path d="M899.2,424.19c-50.31-80.38-136.26-134.33-228.7-152.21c-92.99-17.99-206.18-1.74-264.75,80.4
				c-30.14,42.27-45.28,96.61-46.55,148.17c-1.21,49.05,13.09,97.61,47.22,133.71c29.65,31.36,70.16,51.18,112.08,59.99
				c45.46,9.55,91.89,5.61,135.95-8.59c104.82-33.78,186.47-115.37,259.7-193.98c40.15-43.1,78.04-89.4,128.27-121.31
				c24.03-15.27,49.73-27.71,75.8-39.08c27.47-11.98,55.54-22.73,84.35-31.07c55.34-16.02,114.05-22.81,170.97-11.31
				c49.74,10.05,95.63,34.18,128.62,73.16c58.5,69.12,73.34,173.74,26.81,253.03c-46.97,80.05-145.78,126.35-237.1,107.01
				c-56.02-11.87-107.75-42.54-154.68-74.31c-46.76-31.65-90.09-68.14-130.91-107.11c-19.49-18.61-38.42-37.81-56.94-57.38
				c-1.33-1.4-3.45,0.72-2.12,2.12c76.24,80.53,160.64,156.16,259.64,207.64c45.56,23.69,95.27,40.5,147.21,35.68
				c43.77-4.07,86.03-21.41,120.75-48.23c34.34-26.53,61.45-62.65,74.84-104.12c13.29-41.18,12.95-86.13,1.36-127.66
				c-11.59-41.54-34.41-80.22-66.47-109.23c-37.3-33.76-86.07-51.88-135.61-57.45c-56.09-6.31-112.57,3.59-165.85,21.05
				c-27.23,8.92-53.83,19.75-79.89,31.63c-25.85,11.77-51.18,24.94-74.52,41.19C981.14,409,944.39,455.11,905.07,497
				c-39.42,42.01-80.33,83.16-126.4,117.95c-42.28,31.94-89.3,58.76-140.79,72.45c-45.52,12.1-93.21,12.44-138.47-1.1
				c-42.53-12.72-82.31-37.77-107.55-74.86c-31.25-45.91-34.86-104.3-24.43-157.48c10.21-52.06,33.5-103.4,75.87-136.97
				c40.85-32.37,93.92-46.23,145.27-48.32c96.92-3.93,195.76,33.34,264.42,102.18c16.55,16.59,31.17,34.98,43.61,54.84
				C897.63,427.34,900.22,425.83,899.2,424.19L899.2,424.19z"/>
		</g>
	</g>
</g>
</svg>
