<?xml version="1.0" encoding="utf-8"?>
<!-- Generator: Adobe Illustrator 24.1.2, SVG Export Plug-In . SVG Version: 6.00 Build 0)  -->
<svg version="1.1" id="Layer_1" xmlns="http://www.w3.org/2000/svg" xmlns:xlink="http://www.w3.org/1999/xlink" x="0px" y="0px"
	 viewBox="0 0 1920 1080" style="enable-background:new 0 0 1920 1080;" xml:space="preserve">
<g>
	<g>
		<path d="M433.36-25.85c5.78,115.45,55.66,227.6,137.18,309.53c79.16,79.56,184.4,123.32,288.8,159.19
			c106.35,36.54,216.77,66.63,313.91,124.95c46.59,27.97,88.62,62.53,123.74,104.08c34.54,40.87,62.3,87.44,82.47,136.98
			c40.01,98.22,50.81,208.98,25.65,312.36c-3.12,12.81-6.8,25.46-10.98,37.96c-0.26,0.79,0.31,1.61,1.05,1.85
			c4.97,1.57,9.95,3.13,14.92,4.7c0.13-0.98,0.27-1.96,0.4-2.95c-96.31,0.91-192.63,1.82-288.94,2.74
			c-95.36,0.9-190.76,2.72-286.13,2.6c-44.07-0.06-88.88-2.02-131.25-15.2c-35.86-11.15-68.22-30.96-94.91-57.34
			c-52.92-52.32-81.39-125.84-80.76-199.92c0.71-82.77,34.65-163.87,87.34-226.99c27.22-32.61,60.35-59.79,100.8-74.02
			c40.11-14.11,83.84-17.2,126.07-15.57c77.4,3,161.14,27.84,209.04,92.77c21.22,28.76,34.98,63.76,36.31,99.66
			c1.35,36.4-11.27,71.52-35.96,98.38c-51.05,55.55-140.85,72.56-210.45,46.2c-37.52-14.21-69.15-43.41-81.85-82.04
			c-11.8-35.92-3.5-75.35,23.94-101.88c12.79-12.37,29.01-20.81,46.73-23.08c1.89-0.24,1.91-3.25,0-3
			c-34.11,4.37-61.86,30.15-73.42,61.92c-12.91,35.49-2.61,75,19.77,104.34c48.77,63.95,144.68,71.61,214.76,42.48
			c32.84-13.65,62.6-36.29,80.81-67.24c18.23-30.98,22.53-67.83,15.45-102.77c-7.2-35.55-25.44-68.86-50.7-94.79
			c-27.6-28.33-63.82-47.47-101.38-58.97c-39.52-12.1-81.29-16.21-122.5-15.16c-43.81,1.12-88.71,8.02-127.63,29.2
			c-36.59,19.92-65.9,51.18-89.92,84.75c-24.69,34.5-43.94,73.03-56.05,113.72c-22.75,76.41-18.42,159.45,19.78,230.18
			c17.39,32.19,41.12,61.12,70.06,83.58c32.05,24.87,69.52,39.95,109.35,47.01c45.48,8.07,91.94,6.94,137.93,6.5
			c51.34-0.49,102.68-0.97,154.02-1.46c101.88-0.97,203.77-1.93,305.65-2.9c24.68-0.23,49.35-0.47,74.03-0.7
			c1.71-0.02,2.01-2.44,0.4-2.95c-4.97-1.57-9.95-3.13-14.92-4.7c0.35,0.61,0.7,1.23,1.05,1.85
			c33.46-99.91,31.77-209.63,0.44-309.85c-31.21-99.84-91.93-190.74-175.99-253.64c-89.9-67.27-198.27-102.36-303.63-137.19
			c-106.8-35.31-216.9-71.66-306.05-142.74C520,243.4,458.2,135.02,440.78,19.01c-2.23-14.87-3.67-29.84-4.42-44.86
			C436.26-27.77,433.26-27.78,433.36-25.85L433.36-25.85z"/>
	</g>
</g>
</svg>
