<?xml version="1.0" encoding="utf-8"?>
<!-- Generator: Adobe Illustrator 24.1.2, SVG Export Plug-In . SVG Version: 6.00 Build 0)  -->
<svg version="1.1" id="Layer_1" xmlns="http://www.w3.org/2000/svg" xmlns:xlink="http://www.w3.org/1999/xlink" x="0px" y="0px"
	 viewBox="0 0 1920 1080" style="enable-background:new 0 0 1920 1080;" xml:space="preserve">
<g>
	<g>
		<path d="M159.37,58.57c3.03,103.95,49.17,205.58,125.8,275.99c78.24,71.88,186.98,108.88,292.82,100.69
			c118.3-9.16,220.98-73.39,320.69-131.94c51.55-30.27,105.06-59.3,163.85-72.55c60.43-13.61,124.86-10.73,185.36,1.06
			c53.15,10.35,105.43,29.53,149.18,61.99c41.27,30.61,72.22,72.76,90.9,120.49c36.26,92.66,29.36,199.94-5.41,291.94
			c-18.06,47.77-44.32,93.21-80,130.01c-37.34,38.51-84.61,65.28-137.63,74.73c-57.97,10.34-119.17,1.61-173.85-19.37
			c-51.12-19.62-96.91-52.88-121.01-103.21c-23.68-49.45-26.95-107.65-21.2-161.44c5.44-50.98,22.77-105.57,66.9-136.02
			c23.37-16.12,51.44-24.4,79.3-28.44c28.33-4.11,57.6-3.5,85.5,3.15c51.83,12.36,96.51,47.47,112.66,99.39
			c7.26,23.33,7.76,48.21-0.04,71.46c-0.62,1.83,2.28,2.62,2.89,0.8c15.49-46.15-1.72-97.52-35.04-131.43
			c-37.78-38.45-94.5-51.88-146.91-48.38c-52.98,3.54-106.25,22.54-136.28,68.67c-27.81,42.73-34.56,97.02-34.19,146.95
			c0.4,53.75,11.86,109.69,46.2,152.49c33.94,42.31,85.45,66.98,136.92,80.66c57.03,15.16,118.92,17.35,175.33-1.67
			c48.06-16.2,89.21-47.87,121-86.99c63.66-78.32,94.99-184.08,91.49-284.36c-1.71-48.94-12.04-97.94-33.5-142.13
			c-22.19-45.71-56.45-84.11-99.28-111.45c-47.09-30.05-101.79-46.7-156.75-54.77c-61.01-8.96-124.39-9.06-183.96,8.3
			c-58.08,16.92-110.73,47.74-162.4,78.44c-53.55,31.81-107.48,63.55-165.4,86.88C657.5,421,598.34,434.94,537.94,433.21
			c-56.77-1.63-113.19-15.91-163.98-41.3C273.43,341.64,199.98,247.46,173.2,138.52c-6.44-26.2-10.05-52.99-10.83-79.95
			C162.31,56.64,159.31,56.63,159.37,58.57L159.37,58.57z"/>
	</g>
</g>
</svg>
